<svg fill="none" height="113" viewBox="0 0 120 113" width="120" xmlns="http://www.w3.org/2000/svg">
    <path
        d="M68.1783 52.4561C66.3749 50.9605 67.4325 48.0285 69.7754 48.0285L77.5559 48.0285C78.3347 48.0285 79.0692 47.6658 79.5426 47.0473L92.7359 29.8107L86.1971 62.6036C85.8266 64.4619 83.605 65.2498 82.1465 64.0402L68.1783 52.4561Z"
        fill="white" />
    <path
        d="M67.9609 44.448V53.2045H52.0389V44.448H67.9609ZM85.8108 26.5983C85.8108 16.7401 77.819 8.74841 67.9609 8.74841H52.0391C42.1809 8.74841 34.1892 16.7401 34.1892 26.5983C34.1892 36.4564 42.1808 44.4479 52.0389 44.448V53.2045C37.4595 53.2044 25.6191 41.4779 25.435 26.9422L25.4327 26.5983C25.4327 12.0188 37.1594 0.178254 51.6952 -0.00581703L52.0391 -0.00805664H67.9609C82.6551 -0.00805664 94.5672 11.9041 94.5672 26.5983L94.565 26.9422C94.3808 41.4779 82.5403 53.2045 67.9609 53.2045V44.448C77.819 44.448 85.8107 36.4565 85.8108 26.5983Z"
        fill="white" />
    <path
        d="M51.9821 26.2571C51.9821 28.0072 50.5634 29.4259 48.8134 29.4259C47.0633 29.4259 45.6446 28.0072 45.6446 26.2571C45.6446 24.5071 47.0633 23.0884 48.8134 23.0884C50.5634 23.0884 51.9821 24.5071 51.9821 26.2571Z"
        fill="white" />
    <path
        d="M66.718 26.2571C66.718 28.0072 65.2993 29.4259 63.5492 29.4259C61.7992 29.4259 60.3805 28.0072 60.3805 26.2571C60.3805 24.5071 61.7992 23.0884 63.5492 23.0884C65.2993 23.0884 66.718 24.5071 66.718 26.2571Z"
        fill="white" />
    <path
        d="M116.878 112.663H106.285V105.032H114.066L112.962 83.5956V83.0434C112.962 82.0728 113.397 81.1524 114.267 80.2822L119.689 75.1616V100.815C119.689 106.103 118.752 110.052 116.878 112.663Z"
        fill="white" />
    <path
        d="M102.688 83.8464L99.6258 86.9088C99.425 87.1431 99.2242 87.2602 99.0234 87.2602C98.8226 87.2602 98.5883 87.1431 98.3206 86.9088L96.1117 84.6999L93.9028 86.9088C93.702 87.1431 93.4844 87.2602 93.2501 87.2602C93.0493 87.2602 92.8485 87.1431 92.6477 86.9088L89.5854 83.8464V82.8926L92.6477 79.8303C92.815 79.6295 93.0159 79.5291 93.2501 79.5291C93.4844 79.5291 93.702 79.6295 93.9028 79.8303L96.1117 82.0392L98.3708 79.8303C98.5716 79.6295 98.7891 79.5291 99.0234 79.5291C99.2577 79.5291 99.4585 79.6295 99.6258 79.8303L102.688 82.8926V83.8464ZM102.387 105.032H107.206L107.156 112.662H101.885C99.7095 112.662 97.6512 111.976 95.71 110.604C93.9028 111.976 91.8612 112.662 89.5854 112.662H80.4486V105.032H87.9287C87.3597 104.028 87.0753 102.907 87.0753 101.668C87.0753 99.1246 88.2132 96.7317 90.489 94.4893C92.7983 92.2135 95.2582 91.0756 97.8687 91.0756C99.6425 91.0756 101.132 91.8453 102.337 93.3849C103.542 94.9244 104.144 96.8153 104.144 99.0577C104.144 101.2 103.558 103.191 102.387 105.032ZM96.0615 104.831C97.5006 103.994 98.2201 102.706 98.2201 100.965C98.2201 98.8904 97.4169 97.8529 95.8104 97.8529C94.9737 97.8529 94.2374 98.221 93.6016 98.9573C92.9991 99.6936 92.6979 100.547 92.6979 101.518C92.6979 102.22 93.0159 102.89 93.6517 103.526C94.3211 104.162 95.1244 104.597 96.0615 104.831Z"
        fill="white" />
    <path
        d="M78.2793 105.032H81.3416V112.663H79.9861C78.5135 112.663 77.5764 111.759 77.1748 109.952C76.6728 111.056 76.1875 111.96 75.7189 112.663H43.2381V105.032H50.5676L49.5134 83.5956V83.2442C49.5134 82.1397 49.9485 81.1524 50.8187 80.2822L56.2405 75.1616V96.8992C60.1228 93.0169 63.9884 91.0757 67.8372 91.0757C71.0167 91.0757 73.5603 92.2136 75.4679 94.4895C77.3756 96.7318 78.3295 99.744 78.3295 103.526C78.3295 104.195 78.3127 104.697 78.2793 105.032ZM56.2405 105.032H72.506C72.5395 102.856 72.0542 101.183 71.0501 100.012C70.0796 98.8403 68.6906 98.2546 66.8834 98.2546C65.0426 98.2546 63.3525 98.7399 61.8129 99.7105C60.3069 100.681 58.4494 102.455 56.2405 105.032Z"
        fill="white" />
    <path
        d="M41.1252 105.032H44.1374V112.662H43.1333C41.7946 112.662 40.8407 111.759 40.2718 109.952C39.9706 110.956 39.6024 111.859 39.1673 112.662H28.3739C27.2694 112.662 26.3992 112.545 25.7633 112.311C25.1609 112.043 24.274 111.458 23.1026 110.554C21.4292 111.96 19.5717 112.662 17.5302 112.662H9.94966V105.032H17.229C16.66 104.128 16.3755 103.124 16.3755 102.02C16.3755 99.3087 17.9151 96.8488 20.9941 94.6399C20.3582 94.3052 20.0403 93.9538 20.0403 93.5856C20.0403 93.3848 20.0738 93.2007 20.1407 93.0334C20.375 92.431 20.7599 91.5273 21.2954 90.3225L21.446 89.9209C21.8141 89.0842 22.1321 88.3144 22.3998 87.6116C23.5712 88.3813 25.4454 89.4189 28.0224 90.7241C33.0092 93.2677 36.3225 95.4264 37.9625 97.2002C40.004 99.4091 41.0583 101.802 41.1252 104.379C41.1252 104.58 41.1252 104.797 41.1252 105.032ZM23.8557 104.58C24.6924 104.011 25.2279 103.124 25.4621 101.919C25.5291 101.718 25.5625 101.417 25.5625 101.016C25.5625 99.3422 24.9099 98.5054 23.6047 98.5054C22.9688 98.5054 22.3998 98.8234 21.8978 99.4593C21.3958 100.095 21.1447 100.815 21.1447 101.618C21.1447 102.22 21.3958 102.806 21.8978 103.375C22.3998 103.911 23.0524 104.312 23.8557 104.58ZM29.2775 105.032H34.9001C34.8667 102.455 33.4778 100.329 30.7334 98.6561C30.8003 99.0911 30.8338 99.4928 30.8338 99.8609C30.8338 101.702 30.315 103.425 29.2775 105.032Z"
        fill="white" />
    <path
        d="M10.8534 105.032V112.663H8.79516C4.14309 112.663 1.69992 110.27 1.46564 105.484L0.310989 83.5956C0.310989 83.2944 0.310989 83.0768 0.310989 82.943C0.310989 82.0393 0.746075 81.1524 1.61625 80.2822L7.03808 75.1616V102.07C7.03808 104.045 7.77438 105.032 9.24698 105.032H10.8534Z"
        fill="white" />
</svg>
