<svg fill="none" height="31" viewBox="0 0 31 31" width="31" xmlns="http://www.w3.org/2000/svg">
    <path
        d="M5.89819 8.45142C5.89819 6.5658 5.89819 5.62299 6.48398 5.0372C7.06977 4.45142 8.01258 4.45142 9.89819 4.45142H21.8982C23.7838 4.45142 24.7266 4.45142 25.3124 5.0372C25.8982 5.62299 25.8982 6.5658 25.8982 8.45142V20.9514C25.8982 23.7798 25.8982 25.1941 25.0195 26.0727C24.1408 26.9514 22.7266 26.9514 19.8982 26.9514H11.8982C9.06977 26.9514 7.65555 26.9514 6.77687 26.0727C5.89819 25.1941 5.89819 23.7798 5.89819 20.9514V8.45142Z"
        stroke="#83868F" stroke-width="2" />
    <path d="M19.6482 23.2014L19.6482 26.9514M12.1482 23.2014L12.1482 26.9514" stroke="#83868F"
        stroke-linecap="round" stroke-width="2" />
    <path d="M12.1482 10.7014L19.6482 10.7014" stroke="#83868F" stroke-linecap="round"
        stroke-width="2" />
    <path d="M12.1482 15.7014L19.6482 15.7014" stroke="#83868F" stroke-linecap="round"
        stroke-width="2" />
</svg>
