<svg fill="none" height="37" viewBox="0 0 37 37" width="37" xmlns="http://www.w3.org/2000/svg">
    <path
        d="M18.2793 2C27.2698 2.00018 34.5576 9.28879 34.5576 18.2793C34.5574 27.2696 27.2696 34.5574 18.2793 34.5576C9.28879 34.5576 2.00018 27.2698 2 18.2793C2 9.28868 9.28868 2 18.2793 2Z"
        fill="#F901C9" stroke="#220F49" stroke-width="4" />
    <path
        d="M11.1687 16.1246C11.1687 15.3843 11.7688 14.7842 12.5091 14.7842C13.0167 14.7842 13.4809 14.4974 13.7079 14.0433L14.3013 12.8565C14.5967 12.2657 15.2005 11.8926 15.8609 11.8926H19.4889C20.1494 11.8926 20.7531 12.2657 21.0485 12.8565L21.6419 14.0433C21.869 14.4974 22.3331 14.7842 22.8408 14.7842C23.581 14.7842 24.1811 15.3843 24.1811 16.1246V19.7413C24.1811 20.4084 24.1811 20.7419 24.1283 21.0197C23.8982 22.2298 22.9517 23.1762 21.7416 23.4064C21.4639 23.4592 21.1303 23.4592 20.4633 23.4592H14.8865C14.2195 23.4592 13.886 23.4592 13.6082 23.4064C12.3981 23.1762 11.4517 22.2298 11.2215 21.0197C11.1687 20.7419 11.1687 20.4084 11.1687 19.7413V16.1246Z"
        stroke="#220F49" stroke-width="2" />
    <path
        d="M17.6749 16.5059C18.7196 16.5059 19.5665 17.3528 19.5665 18.3975C19.5665 19.4422 18.7197 20.2891 17.6749 20.2891C16.6302 20.289 15.7833 19.4422 15.7833 18.3975C15.7834 17.3528 16.6302 16.5059 17.6749 16.5059Z"
        stroke="#220F49" stroke-width="2" />
</svg>
