<svg width="30" height="30" viewBox="0 0 30 30" fill="none" xmlns="http://www.w3.org/2000/svg">
<path d="M25.1115 4.65122H22.6055V3.22994C22.6055 2.94072 22.3711 2.7063 22.0818 2.7063H18.2932C17.97 1.17592 16.6083 0.0380859 15 0.0380859C13.3917 0.0380859 12.03 1.17592 11.7067 2.70629H7.91813C7.62891 2.70629 7.39448 2.9407 7.39448 3.22992V4.6512H4.8884C4.59918 4.6512 4.36475 4.88564 4.36475 5.17485V29.4376C4.36475 29.7268 4.59918 29.9612 4.8884 29.9612H25.1115C25.4007 29.9612 25.6352 29.7268 25.6352 29.4376V5.17487C25.6352 4.88565 25.4007 4.65122 25.1115 4.65122ZM8.4418 3.75359H12.1631C12.4401 3.75359 12.669 3.538 12.6858 3.26164C12.7598 2.04132 13.7762 1.0854 15 1.0854C16.2237 1.0854 17.2402 2.04132 17.3141 3.26164C17.331 3.538 17.5599 3.75359 17.8369 3.75359H21.5582V4.65122V5.69852V6.94535H8.4418V5.69852V4.65122V3.75359ZM24.5878 28.9139H5.41208V5.69852H7.39448V7.469C7.39448 7.75824 7.62891 7.99265 7.91813 7.99265H22.0818C22.3711 7.99265 22.6055 7.75822 22.6055 7.469V5.69852H24.5878V28.9139Z" fill="#83868F"/>
<path d="M11.0605 11.4004L8.90607 13.5549L7.94268 12.5915C7.73815 12.3871 7.40662 12.3871 7.20207 12.5915C6.99759 12.796 6.99759 13.1275 7.20207 13.3321L8.53575 14.6658C8.63802 14.768 8.77202 14.8191 8.90607 14.8191C9.04012 14.8191 9.17412 14.768 9.27639 14.6658L11.8012 12.141C12.0056 11.9365 12.0056 11.6049 11.8012 11.4004C11.5966 11.196 11.2651 11.196 11.0605 11.4004Z" fill="#83868F"/>
<path d="M13.7498 12.5088C13.4606 12.5088 13.2262 12.7432 13.2262 13.0324C13.2262 13.3217 13.4606 13.5561 13.7498 13.5561H22.4276C22.7168 13.5561 22.9512 13.3217 22.9512 13.0324C22.9512 12.7432 22.7168 12.5088 22.4276 12.5088H13.7498Z" fill="#83868F"/>
<path d="M11.0605 17.332L8.90607 19.4866L7.94268 18.5231C7.73815 18.3187 7.40662 18.3187 7.20207 18.5231C6.99759 18.7276 6.99759 19.0592 7.20207 19.2637L8.53575 20.5974C8.63802 20.6996 8.77202 20.7508 8.90607 20.7508C9.04012 20.7508 9.17412 20.6996 9.27639 20.5974L11.8012 18.0727C12.0056 17.8681 12.0056 17.5366 11.8012 17.332C11.5966 17.1276 11.2651 17.1276 11.0605 17.332Z" fill="#83868F"/>
<path d="M22.4276 18.4404H13.7498C13.4606 18.4404 13.2262 18.6749 13.2262 18.9641C13.2262 19.2533 13.4606 19.4878 13.7498 19.4878H22.4276C22.7168 19.4878 22.9512 19.2533 22.9512 18.9641C22.9512 18.6749 22.7168 18.4404 22.4276 18.4404Z" fill="#83868F"/>
<path d="M11.0605 23.2637L8.90607 25.4182L7.94268 24.4547C7.73815 24.2503 7.40662 24.2503 7.20207 24.4547C6.99759 24.6593 6.99759 24.9908 7.20207 25.1954L8.53575 26.5291C8.63802 26.6313 8.77202 26.6824 8.90607 26.6824C9.04012 26.6824 9.17412 26.6313 9.27639 26.5291L11.8012 24.0043C12.0056 23.7997 12.0056 23.4682 11.8012 23.2637C11.5966 23.0593 11.2651 23.0593 11.0605 23.2637Z" fill="#83868F"/>
<path d="M22.4276 24.373H13.7498C13.4606 24.373 13.2262 24.6075 13.2262 24.8967C13.2262 25.1859 13.4606 25.4203 13.7498 25.4203H22.4276C22.7168 25.4203 22.9512 25.1859 22.9512 24.8967C22.9512 24.6075 22.7168 24.373 22.4276 24.373Z" fill="#83868F"/>
</svg>
