<svg width="60" height="60" viewBox="0 0 60 60" fill="none" xmlns="http://www.w3.org/2000/svg">
<path d="M45 20V38.25C45 41.0503 45 42.4505 44.455 43.52C43.9757 44.4608 43.2108 45.2257 42.27 45.705C41.2005 46.25 39.8003 46.25 37 46.25H30M45 20C48.4517 20 51.25 17.2018 51.25 13.75C51.25 10.2982 48.4517 7.5 45 7.5C41.5483 7.5 38.75 10.2982 38.75 13.75C38.75 17.2018 41.5483 20 45 20ZM30 46.25L35 40M30 46.25L35 52.5M15 40V21.75C15 18.9497 15 17.5496 15.545 16.4801C16.0243 15.5392 16.7892 14.7743 17.7301 14.295C18.7996 13.75 20.1997 13.75 23 13.75H30M15 40C11.5482 40 8.75 42.7983 8.75 46.25C8.75 49.7017 11.5482 52.5 15 52.5C18.4518 52.5 21.25 49.7017 21.25 46.25C21.25 42.7983 18.4518 40 15 40ZM30 13.75L25 20M30 13.75L25 7.5" stroke="#83868F" stroke-width="5" stroke-linecap="round" stroke-linejoin="round"/>
</svg>
