<svg width="46" height="50" viewBox="0 0 46 50" fill="none" xmlns="http://www.w3.org/2000/svg">
<path d="M36.9375 15.0001V33.2501C36.9375 36.0504 36.9375 37.4506 36.4197 38.5201C35.9645 39.4609 35.2377 40.2259 34.344 40.7051C33.328 41.2501 31.9977 41.2501 29.3375 41.2501H22.6875M36.9375 15.0001C40.2167 15.0001 42.875 12.2019 42.875 8.75014C42.875 5.29836 40.2167 2.50014 36.9375 2.50014C33.6583 2.50014 31 5.29836 31 8.75014C31 12.2019 33.6583 15.0001 36.9375 15.0001ZM22.6875 41.2501L27.4375 35.0001M22.6875 41.2501L27.4375 47.5001M8.4375 35.0001V16.7501C8.4375 13.9499 8.4375 12.5497 8.95523 11.4802C9.41061 10.5394 10.1373 9.77446 11.031 9.29511C12.0471 8.75014 13.3773 8.75014 16.0375 8.75014H22.6875M8.4375 35.0001C5.15831 35.0001 2.5 37.7984 2.5 41.2501C2.5 44.7019 5.15831 47.5001 8.4375 47.5001C11.7167 47.5001 14.375 44.7019 14.375 41.2501C14.375 37.7984 11.7167 35.0001 8.4375 35.0001ZM22.6875 8.75014L17.9375 15.0001M22.6875 8.75014L17.9375 2.50014" stroke="#83868F" stroke-width="5" stroke-linecap="round" stroke-linejoin="round"/>
</svg>
