<svg width="23" height="25" viewBox="0 0 23 25" fill="none" xmlns="http://www.w3.org/2000/svg">
<path fill-rule="evenodd" clip-rule="evenodd" d="M11.25 25C5.9467 25 3.29505 25 1.64752 23.1694C-1.49012e-07 21.3389 0 18.3925 0 12.5C0 6.60744 -1.49012e-07 3.66116 1.64752 1.83059C3.29505 -1.49012e-07 5.9467 0 11.25 0C16.5532 0 19.205 -1.49012e-07 20.8525 1.83059C22.5 3.66116 22.5 6.60744 22.5 12.5C22.5 18.3925 22.5 21.3389 20.8525 23.1694C19.205 25 16.5532 25 11.25 25ZM15 5H7.5C6.91876 5 6.62815 5 6.38971 5.06389C5.74266 5.23726 5.23726 5.74266 5.06389 6.38971C5 6.62815 5 6.91876 5 7.5C5 8.08124 5 8.37185 5.06389 8.61029C5.23726 9.25734 5.74266 9.76274 6.38971 9.93611C6.62815 10 6.91876 10 7.5 10H15C15.5813 10 15.8719 10 16.1102 9.93611C16.7574 9.76274 17.2628 9.25734 17.4361 8.61029C17.5 8.37185 17.5 8.08124 17.5 7.5C17.5 6.91876 17.5 6.62815 17.4361 6.38971C17.2628 5.74266 16.7574 5.23726 16.1102 5.06389C15.8719 5 15.5813 5 15 5ZM7.5 13.75C7.5 14.4404 6.94035 15 6.25 15C5.55965 15 5 14.4404 5 13.75C5 13.0596 5.55965 12.5 6.25 12.5C6.94035 12.5 7.5 13.0596 7.5 13.75ZM11.25 15C11.9404 15 12.5 14.4404 12.5 13.75C12.5 13.0596 11.9404 12.5 11.25 12.5C10.5596 12.5 10 13.0596 10 13.75C10 14.4404 10.5596 15 11.25 15ZM17.5 13.75C17.5 14.4404 16.9404 15 16.25 15C15.5596 15 15 14.4404 15 13.75C15 13.0596 15.5596 12.5 16.25 12.5C16.9404 12.5 17.5 13.0596 17.5 13.75ZM16.25 20C16.9404 20 17.5 19.4404 17.5 18.75C17.5 18.0596 16.9404 17.5 16.25 17.5C15.5596 17.5 15 18.0596 15 18.75C15 19.4404 15.5596 20 16.25 20ZM12.5 18.75C12.5 19.4404 11.9404 20 11.25 20C10.5596 20 10 19.4404 10 18.75C10 18.0596 10.5596 17.5 11.25 17.5C11.9404 17.5 12.5 18.0596 12.5 18.75ZM6.25 20C6.94035 20 7.5 19.4404 7.5 18.75C7.5 18.0596 6.94035 17.5 6.25 17.5C5.55965 17.5 5 18.0596 5 18.75C5 19.4404 5.55965 20 6.25 20Z" fill="#83868F"/>
</svg>
