<svg width="30" height="28" viewBox="0 0 30 28" fill="none" xmlns="http://www.w3.org/2000/svg">
<path d="M15 27.75L14.25 27.125C10.875 24.625 0 15.625 0 7.875C0 3.5 3.625 0 8.125 0C10.875 0 13.5 1.375 15 3.625C16.5 1.375 19.125 0 21.875 0C26.375 0 30 3.5 30 7.875C30 15.75 19.125 24.625 15.75 27.25L15 27.75ZM8.125 2.375C5 2.375 2.5 4.75 2.5 7.75C2.5 12.875 8.875 19.625 15 24.5C21.125 19.625 27.5 12.875 27.5 7.75C27.5 4.75 25 2.375 21.875 2.375C19.875 2.375 18.125 3.375 17.125 4.875L15 8.25L12.875 5C11.875 3.375 10.125 2.375 8.125 2.375Z" fill="#83868F"/>
</svg>
