<svg fill="none" height="31" viewBox="0 0 31 31" width="31" xmlns="http://www.w3.org/2000/svg">
    <path
        d="M24.6489 18.4518L25.6489 18.4524V18.4518H24.6489ZM24.6392 18.5836L23.6477 18.4529C23.6439 18.4818 23.6414 18.5108 23.6401 18.5399L24.6392 18.5836ZM23.9829 21.5504L24.9068 21.9332L24.9068 21.9331L23.9829 21.5504ZM22.0864 24.3893L22.7935 25.0964L22.7935 25.0964L22.0864 24.3893ZM19.2476 26.2858L19.6302 27.2097L19.6303 27.2096L19.2476 26.2858ZM15.8989 26.9518V27.9518V26.9518ZM12.5503 26.2858L12.1676 27.2096L12.1676 27.2097L12.5503 26.2858ZM9.71143 24.3893L9.00432 25.0964L9.00434 25.0964L9.71143 24.3893ZM7.81494 21.5504L6.89106 21.9331L6.89108 21.9332L7.81494 21.5504ZM7.14893 18.2018H6.14893V18.2018L7.14893 18.2018ZM20.1859 8.27238L20.8229 9.04321L20.1859 8.27238ZM20.3601 8.27081L20.9966 7.49958L20.3601 8.27081ZM17.313 11.4606L16.3643 11.7767L17.313 11.4606ZM17.5968 11.487L16.7249 10.9973L17.5968 11.487ZM13.3785 4.54832L12.6494 5.23274L13.3785 4.54832ZM13.186 4.53784L13.8481 5.28725L13.186 4.53784ZM13.3785 4.54832L12.6494 5.23274C13.0595 5.6696 15.0954 7.96887 16.3643 11.7767L17.313 11.4606L18.2617 11.1444C16.8708 6.9705 14.6367 4.42748 14.1076 3.86391L13.3785 4.54832ZM17.5968 11.487L18.4687 11.9766C19.44 10.247 20.5533 9.26605 20.8229 9.04321L20.1859 8.27238L19.5488 7.50156C19.1547 7.82728 17.8523 8.98967 16.7249 10.9973L17.5968 11.487ZM20.3601 8.27081L19.7235 9.04204C20.2385 9.46706 23.6489 12.4988 23.6489 18.1285H24.6489H25.6489C25.6489 11.6289 21.7088 8.0874 20.9966 7.49958L20.3601 8.27081ZM24.6489 18.1285H23.6489V18.4518H24.6489H25.6489V18.1285H24.6489ZM24.6489 18.4518L23.6489 18.4512C23.6489 18.4435 23.6493 18.4394 23.6492 18.44C23.6492 18.4405 23.6489 18.4444 23.6477 18.4529L24.6392 18.5836L25.6306 18.7144C25.6395 18.6464 25.6489 18.5556 25.6489 18.4524L24.6489 18.4518ZM24.6392 18.5836L23.6401 18.5399C23.6006 19.4431 23.4049 20.3328 23.059 21.1677L23.9829 21.5504L24.9068 21.9331C25.3428 20.8806 25.5886 19.7612 25.6382 18.6273L24.6392 18.5836ZM23.9829 21.5504L23.0591 21.1677C22.6695 22.108 22.0987 22.9628 21.3793 23.6822L22.0864 24.3893L22.7935 25.0964C23.6989 24.191 24.4169 23.1156 24.9068 21.9332L23.9829 21.5504ZM22.0864 24.3893L21.3793 23.6822C20.6599 24.4016 19.8052 24.9724 18.8649 25.3619L19.2476 26.2858L19.6303 27.2096C20.8129 26.7198 21.8881 26.0018 22.7935 25.0964L22.0864 24.3893ZM19.2476 26.2858L18.8649 25.3619C17.9247 25.7513 16.9166 25.9518 15.8989 25.9518V26.9518V27.9518C17.1792 27.9518 18.4473 27.6996 19.6302 27.2097L19.2476 26.2858ZM15.8989 26.9518V25.9518C14.8812 25.9518 13.8732 25.7513 12.933 25.3619L12.5503 26.2858L12.1676 27.2097C13.3505 27.6996 14.6186 27.9518 15.8989 27.9518V26.9518ZM12.5503 26.2858L12.933 25.3619C11.9927 24.9724 11.138 24.4016 10.4185 23.6822L9.71143 24.3893L9.00434 25.0964C9.90975 26.0018 10.985 26.7198 12.1676 27.2096L12.5503 26.2858ZM9.71143 24.3893L10.4185 23.6822C9.69917 22.9628 9.12836 22.108 8.7388 21.1677L7.81494 21.5504L6.89108 21.9332C7.38097 23.1156 8.09891 24.191 9.00432 25.0964L9.71143 24.3893ZM7.81494 21.5504L8.73882 21.1677C8.34943 20.2277 8.14898 19.2194 8.14893 18.2017L7.14893 18.2018L6.14893 18.2018C6.14899 19.482 6.40111 20.7502 6.89106 21.9331L7.81494 21.5504ZM7.14893 18.2018H8.14893C8.14893 10.615 13.1192 5.93118 13.8481 5.28725L13.186 4.53784L12.5239 3.78842C11.6671 4.54534 6.14893 9.73466 6.14893 18.2018H7.14893ZM20.1859 8.27238L20.8229 9.04321C20.522 9.29193 20.0578 9.31792 19.7235 9.04204L20.3601 8.27081L20.9966 7.49958C20.5585 7.13796 19.9536 7.16703 19.5488 7.50156L20.1859 8.27238ZM17.313 11.4606L16.3643 11.7767C16.6838 12.7353 17.9828 12.8419 18.4687 11.9766L17.5968 11.487L16.7249 10.9973C17.0801 10.3647 18.0267 10.439 18.2617 11.1444L17.313 11.4606ZM13.3785 4.54832L14.1076 3.86391C13.6986 3.42824 13.0019 3.36612 12.5239 3.78842L13.186 4.53784L13.8481 5.28725C13.4859 5.60724 12.9526 5.55575 12.6494 5.23274L13.3785 4.54832Z"
        fill="#83868F" />
    <path
        d="M15.355 14.8582L14.7364 14.0724L14.7364 14.0724L15.355 14.8582ZM16.4429 14.8582L17.0615 14.0724L17.0615 14.0724L16.4429 14.8582ZM20.8364 21.1648L19.8478 21.3152L19.8487 21.3209L20.8364 21.1648ZM20.8462 21.2322L21.8366 21.0941L21.836 21.0896L20.8462 21.2322ZM20.8618 21.3347L21.8547 21.2156L21.8547 21.2156L20.8618 21.3347ZM20.8618 21.3542L19.8664 21.4499C19.8671 21.4574 19.8679 21.465 19.8688 21.4725L20.8618 21.3542ZM20.8989 21.9509H21.8989V21.9508L20.8989 21.9509ZM15.8989 26.9509V27.9509V26.9509ZM10.8989 21.9509L9.89893 21.9508V21.9509H10.8989ZM10.9351 21.3542L11.928 21.4724C11.9289 21.4649 11.9298 21.4574 11.9305 21.4498L10.9351 21.3542ZM10.936 21.3347L9.94315 21.2156L9.94315 21.2156L10.936 21.3347ZM10.9507 21.2322L9.96089 21.0896L9.96026 21.0941L10.9507 21.2322ZM10.9604 21.1648L11.9482 21.3209L11.9491 21.3151L10.9604 21.1648ZM15.355 14.8582L15.9735 15.6439C15.9585 15.6557 15.9317 15.6673 15.8989 15.6673C15.8661 15.6673 15.8393 15.6557 15.8243 15.6439L16.4429 14.8582L17.0615 14.0724C16.3754 13.5323 15.4225 13.5323 14.7364 14.0724L15.355 14.8582ZM16.4429 14.8582L15.8243 15.6439C16.3866 16.0866 17.3134 16.8839 18.145 17.9025C18.9852 18.9316 19.6644 20.109 19.8478 21.3152L20.8364 21.1648L21.8251 21.0144C21.5653 19.3067 20.6426 17.7992 19.6942 16.6376C18.7373 15.4655 17.6889 14.5664 17.0615 14.0724L16.4429 14.8582ZM20.8364 21.1648L19.8487 21.3209C19.8509 21.3348 19.851 21.3371 19.8564 21.3748L20.8462 21.2322L21.836 21.0896C21.8349 21.0823 21.8291 21.0396 21.8242 21.0087L20.8364 21.1648ZM20.8462 21.2322L19.8558 21.3703C19.8582 21.388 19.8607 21.4038 19.8626 21.4159C19.8644 21.4268 19.8665 21.4397 19.8674 21.445C19.87 21.4611 19.8696 21.4598 19.8689 21.4538L20.8618 21.3347L21.8547 21.2156C21.8499 21.1753 21.8441 21.1398 21.8411 21.1218C21.8392 21.11 21.8385 21.1059 21.8375 21.0997C21.8367 21.0948 21.8365 21.0935 21.8366 21.0941L20.8462 21.2322ZM20.8618 21.3347L19.8689 21.4538C19.8657 21.4268 19.864 21.4029 19.8631 21.3827C19.8621 21.3626 19.862 21.3455 19.8621 21.3322C19.8622 21.3191 19.8625 21.3086 19.8628 21.3021C19.8629 21.2988 19.863 21.2962 19.8631 21.2946C19.8632 21.2937 19.8632 21.293 19.8632 21.2926C19.8632 21.2922 19.8633 21.2919 19.8633 21.2919C19.8633 21.2913 19.8632 21.293 19.8631 21.2941C19.8631 21.2955 19.8629 21.2981 19.8628 21.3012C19.8625 21.3072 19.8621 21.3175 19.8618 21.3302C19.8616 21.3431 19.8615 21.3599 19.8621 21.3796C19.8626 21.3994 19.8638 21.4232 19.8664 21.4499L20.8618 21.3542L21.8572 21.2586C21.862 21.3078 21.8619 21.3472 21.8615 21.3686C21.8613 21.3797 21.8609 21.3883 21.8607 21.3927C21.8605 21.3963 21.8603 21.4001 21.8605 21.3971C21.8606 21.3959 21.8609 21.3896 21.8612 21.3819C21.8615 21.3738 21.8619 21.3617 21.862 21.3469C21.8622 21.3181 21.8614 21.2719 21.8547 21.2156L20.8618 21.3347ZM20.8618 21.3542L19.8688 21.4725C19.8882 21.6353 19.8989 21.7944 19.8989 21.951L20.8989 21.9509L21.8989 21.9508C21.8989 21.7035 21.882 21.4646 21.8548 21.236L20.8618 21.3542ZM20.8989 21.9509H19.8989C19.8989 24.1601 18.1081 25.9509 15.8989 25.9509V26.9509V27.9509C19.2126 27.9509 21.8989 25.2646 21.8989 21.9509H20.8989ZM15.8989 26.9509V25.9509C13.6898 25.9509 11.8989 24.1601 11.8989 21.9509H10.8989H9.89893C9.89893 25.2646 12.5852 27.9509 15.8989 27.9509V26.9509ZM10.8989 21.9509L11.8989 21.951C11.8989 21.7914 11.9091 21.6319 11.928 21.4724L10.9351 21.3542L9.94207 21.2361C9.91446 21.468 9.89895 21.7066 9.89893 21.9508L10.8989 21.9509ZM10.9351 21.3542L11.9305 21.4498C11.9332 21.422 11.9342 21.3994 11.9347 21.3863C11.9349 21.3795 11.9351 21.374 11.9352 21.3708C11.9352 21.3692 11.9352 21.3678 11.9352 21.3671C11.9352 21.3667 11.9352 21.3663 11.9353 21.3662C11.9353 21.366 11.9353 21.366 11.9353 21.366C11.9353 21.366 11.9352 21.3667 11.9352 21.3676C11.9352 21.3685 11.9352 21.37 11.9351 21.3718C11.935 21.3754 11.9348 21.3812 11.9345 21.3883C11.9338 21.4023 11.9323 21.4253 11.9289 21.4538L10.936 21.3347L9.94315 21.2156C9.93935 21.2473 9.93767 21.2736 9.93683 21.2908C9.93603 21.3073 9.93577 21.3208 9.93572 21.323C9.93566 21.3258 9.9357 21.3238 9.93572 21.3231C9.93576 21.3215 9.93585 21.3177 9.93604 21.3125C9.93641 21.3026 9.93727 21.2833 9.93963 21.2587L10.9351 21.3542ZM10.936 21.3347L11.9289 21.4538C11.9323 21.4254 11.93 21.4499 11.9411 21.3702L10.9507 21.2322L9.96026 21.0941C9.95879 21.1047 9.9576 21.1122 9.9541 21.1356C9.95124 21.1547 9.947 21.1835 9.94315 21.2156L10.936 21.3347ZM10.9507 21.2322L11.9405 21.3748C11.9459 21.3372 11.946 21.3347 11.9482 21.3209L10.9604 21.1648L9.9727 21.0087C9.96782 21.0397 9.96197 21.0822 9.9609 21.0896L10.9507 21.2322ZM10.9604 21.1648L11.9491 21.3151C12.1325 20.1091 12.8118 18.9317 13.6522 17.9026C14.484 16.8841 15.4111 16.0867 15.9736 15.6439L15.355 14.8582L14.7364 14.0724C14.109 14.5664 13.0604 15.4654 12.1031 16.6375C11.1545 17.7991 10.2315 19.3066 9.97181 21.0145L10.9604 21.1648Z"
        fill="#83868F" />
</svg>
