<svg fill="none" height="25" viewBox="0 0 25 25" width="25" xmlns="http://www.w3.org/2000/svg">
    <circle cx="12.1349" cy="8.56372" r="3.25" stroke="white" stroke-linecap="round"
        stroke-width="1.5" />
    <path
        d="M15.1863 9.43872C15.4847 8.92193 15.9761 8.54483 16.5525 8.39039C17.1289 8.23594 17.7431 8.31679 18.2599 8.61516C18.7767 8.91353 19.1538 9.40497 19.3082 9.98138C19.4627 10.5578 19.3818 11.1719 19.0834 11.6887C18.7851 12.2055 18.2936 12.5826 17.7172 12.7371C17.1408 12.8915 16.5267 12.8106 16.0099 12.5123C15.4931 12.2139 15.116 11.7225 14.9616 11.1461C14.8071 10.5697 14.888 9.95551 15.1863 9.43872L15.1863 9.43872Z"
        stroke="white" stroke-width="1.5" />
    <path
        d="M5.18633 9.43872C5.4847 8.92193 5.97614 8.54483 6.55254 8.39039C7.12895 8.23594 7.7431 8.31679 8.25989 8.61516C8.77668 8.91353 9.15377 9.40497 9.30822 9.98138C9.46267 10.5578 9.38181 11.1719 9.08344 11.6887C8.78508 12.2055 8.29363 12.5826 7.71723 12.7371C7.14083 12.8915 6.52668 12.8106 6.00989 12.5123C5.4931 12.2139 5.116 11.7225 4.96155 11.1461C4.80711 10.5697 4.88796 9.95551 5.18633 9.43872L5.18633 9.43872Z"
        stroke="white" stroke-width="1.5" />
    <path
        d="M17.1345 14.5637V13.8137H17.1344L17.1345 14.5637ZM20.8552 17.468L21.5621 17.2174L21.562 17.2173L20.8552 17.468ZM17.0163 18.5637L16.2811 18.7118L16.4023 19.3137H17.0163V18.5637ZM14.9177 15.2766L14.464 14.6793L13.5972 15.3377L14.5211 15.9132L14.9177 15.2766ZM17.1345 14.5637V15.3137C18.9395 15.3137 19.7621 16.6298 20.1483 17.7187L20.8552 17.468L21.562 17.2173C21.1082 15.9378 19.9195 13.8137 17.1345 13.8137V14.5637ZM20.8552 17.468L20.1483 17.7186C20.1523 17.73 20.1532 17.7368 20.1534 17.7395C20.1536 17.7423 20.1534 17.7434 20.1534 17.7436C20.1533 17.744 20.153 17.7451 20.152 17.7473C20.151 17.7496 20.1488 17.7534 20.1449 17.7584C20.1281 17.7793 20.082 17.8137 20.0016 17.8137V18.5637V19.3137C21.0108 19.3137 21.9713 18.3718 21.5621 17.2174L20.8552 17.468ZM20.0016 18.5637V17.8137H17.0163V18.5637V19.3137H20.0016V18.5637ZM17.0163 18.5637L17.7515 18.4156C17.5391 17.3609 16.9541 15.6615 15.3142 14.64L14.9177 15.2766L14.5211 15.9132C15.6451 16.6133 16.1015 17.8205 16.2811 18.7118L17.0163 18.5637ZM14.9177 15.2766L15.3713 15.8739C15.8001 15.5482 16.3632 15.3138 17.1345 15.3137L17.1345 14.5637L17.1344 13.8137C16.0263 13.8138 15.1463 14.1611 14.464 14.6793L14.9177 15.2766Z"
        fill="white" />
    <path
        d="M7.13513 14.5637L7.13517 13.8137H7.13513V14.5637ZM9.35095 15.2766L9.74764 15.9131L10.6714 15.3374L9.80442 14.6792L9.35095 15.2766ZM7.2533 18.5637V19.3137H7.8673L7.98853 18.7118L7.2533 18.5637ZM3.41443 17.468L2.70758 17.2173L2.70751 17.2175L3.41443 17.468ZM7.13513 14.5637L7.13509 15.3137C7.90572 15.3138 8.4684 15.5483 8.89749 15.874L9.35095 15.2766L9.80442 14.6792C9.12255 14.1616 8.24328 13.8138 7.13517 13.8137L7.13513 14.5637ZM9.35095 15.2766L8.95426 14.6401C7.31498 15.6618 6.73042 17.3613 6.51806 18.4156L7.2533 18.5637L7.98853 18.7118C8.16805 17.8205 8.62423 16.6133 9.74764 15.9131L9.35095 15.2766ZM7.2533 18.5637V17.8137H4.26794V18.5637V19.3137H7.2533V18.5637ZM4.26794 18.5637V17.8137C4.18767 17.8137 4.14156 17.7793 4.12477 17.7584C4.12078 17.7534 4.11865 17.7496 4.11759 17.7473C4.11656 17.7451 4.11633 17.744 4.11626 17.7436C4.11622 17.7434 4.11599 17.7422 4.11622 17.7395C4.11645 17.7367 4.11732 17.7299 4.12134 17.7186L3.41443 17.468L2.70751 17.2175C2.29842 18.3717 3.25873 19.3137 4.26794 19.3137V18.5637ZM3.41443 17.468L4.12128 17.7187C4.50754 16.6298 5.33011 15.3137 7.13513 15.3137V14.5637V13.8137C4.35005 13.8137 3.16141 15.9378 2.70758 17.2173L3.41443 17.468Z"
        fill="white" />
    <path
        d="M12.1349 14.5637C15.7064 14.5637 16.7268 17.1149 17.0183 18.5726C17.1266 19.1142 16.6872 19.5637 16.1349 19.5637H8.13489C7.5826 19.5637 7.14318 19.1142 7.25148 18.5726C7.54299 17.1149 8.56335 14.5637 12.1349 14.5637Z"
        stroke="white" stroke-linecap="round" stroke-width="1.5" />
</svg>
