<svg fill="none" height="34" viewBox="0 0 34 34" width="34" xmlns="http://www.w3.org/2000/svg">
    <path
        d="M7.08334 18.076C7.08334 16.1525 7.08334 15.1908 7.47216 14.3454C7.86098 13.5 8.5912 12.8741 10.0516 11.6223L11.4683 10.4081C14.108 8.14546 15.4278 7.01416 17 7.01416C18.5722 7.01416 19.892 8.14546 22.5317 10.4081L23.9484 11.6223C25.4088 12.8741 26.139 13.5 26.5279 14.3454C26.9167 15.1908 26.9167 16.1525 26.9167 18.076V24.0832C26.9167 26.7545 26.9167 28.0902 26.0868 28.9201C25.2569 29.7499 23.9213 29.7499 21.25 29.7499H12.75C10.0787 29.7499 8.74307 29.7499 7.91321 28.9201C7.08334 28.0902 7.08334 26.7545 7.08334 24.0832V18.076Z"
        stroke="white" stroke-width="2" />
    <path
        d="M20.5417 29.75V22.25C20.5417 21.6977 20.094 21.25 19.5417 21.25H14.4583C13.9061 21.25 13.4583 21.6977 13.4583 22.25V29.75"
        stroke="white" stroke-linecap="round" stroke-linejoin="round" stroke-width="2" />
</svg>
