<svg fill="none" height="28" viewBox="0 0 26 28" width="26" xmlns="http://www.w3.org/2000/svg">
    <path
        d="M13 3.20142C14.0262 3.20142 15.0048 3.42337 15.8887 3.82251C15.4056 4.30569 15.0183 4.88216 14.751 5.51685C14.2042 5.3135 13.6142 5.20142 13 5.20142C10.4307 5.20142 8.27441 7.13884 8.00101 9.6936L7.70121 12.5022C7.67562 12.7413 7.66086 12.8814 7.64164 13.0208C7.49516 14.0824 7.15998 15.1101 6.65238 16.054C6.58572 16.1779 6.51493 16.2997 6.39457 16.5081L5.75883 17.6077C5.40057 18.2277 5.18583 18.6049 5.07133 18.8831C5.06828 18.8905 5.0653 18.8976 5.06254 18.9045C5.07012 18.9057 5.0778 18.9083 5.08598 18.9094C5.3842 18.9495 5.81884 18.9514 6.53519 18.9514H19.4649C20.1812 18.9514 20.6159 18.9495 20.9141 18.9094C20.9219 18.9084 20.9293 18.9056 20.9366 18.9045C20.9338 18.8977 20.9317 18.8903 20.9287 18.8831C20.8142 18.6049 20.5995 18.2277 20.2412 17.6077L19.6055 16.5081C19.4851 16.2997 19.4144 16.1779 19.3477 16.054C18.8401 15.1101 18.5049 14.0824 18.3584 13.0208C18.3448 12.9221 18.3349 12.823 18.3204 12.6887C18.6968 12.7771 19.091 12.8264 19.5 12.8264C19.7879 12.8264 20.0686 12.8017 20.3409 12.7571C20.4555 13.5794 20.7162 14.3754 21.1094 15.1067C21.1583 15.1975 21.211 15.2891 21.337 15.5071L21.9727 16.6067C22.301 17.1748 22.6005 17.6894 22.7784 18.1213C22.9572 18.5558 23.1163 19.1451 22.8477 19.7561C22.7891 19.8894 22.716 20.0166 22.6299 20.134C22.2352 20.6722 21.6453 20.8293 21.1797 20.8918C20.7167 20.954 20.1211 20.9514 19.4649 20.9514H6.53519C5.87901 20.9514 5.28335 20.954 4.82035 20.8918C4.35473 20.8293 3.76485 20.6722 3.37016 20.134C3.28408 20.0166 3.211 19.8894 3.15238 19.7561C2.88376 19.1451 3.04288 18.5558 3.22172 18.1213C3.39956 17.6894 3.69912 17.1748 4.02738 16.6067L4.66312 15.5071C4.78905 15.2891 4.8418 15.1975 4.89066 15.1067C5.28546 14.3725 5.54627 13.5731 5.66019 12.7473C5.67429 12.6451 5.68514 12.5399 5.71195 12.2893L6.01273 9.48071C6.39495 5.90962 9.40852 3.20142 13 3.20142ZM18.3496 5.67114C19.2396 6.71467 19.8317 8.0262 19.9873 9.48071L20.0166 9.75806C19.8509 9.80025 19.6783 9.82639 19.5 9.82642L19.2784 9.8147C18.7315 9.75699 18.2453 9.48749 17.8955 9.08716C17.7792 8.58623 17.5896 8.11564 17.3379 7.68677C17.3362 7.65017 17.333 7.61345 17.333 7.57642C17.333 6.77309 17.7396 6.06922 18.3496 5.67114Z"
        fill="white" />
    <path
        d="M9.86074 20.6992C10.0459 21.7756 10.4539 22.7268 11.0215 23.4053C11.5891 24.0837 12.2846 24.4514 13 24.4514C13.7154 24.4514 14.4109 24.0837 14.9785 23.4053C15.5461 22.7268 15.9541 21.7756 16.1393 20.6992"
        stroke="white" stroke-linecap="round" stroke-width="2" />
    <path
        d="M19.5003 4.82642C20.9905 4.8266 22.1663 6.0757 22.1663 7.57642C22.1663 9.07714 20.9905 10.3262 19.5003 10.3264C18.0099 10.3264 16.8333 9.07725 16.8333 7.57642C16.8333 6.07559 18.0099 4.82642 19.5003 4.82642Z"
        fill="white" stroke="white" />
</svg>
