<svg fill="none" height="27" viewBox="0 0 27 27" width="27" xmlns="http://www.w3.org/2000/svg">
    <path
        d="M16 11.1592C17.4926 11.7914 18.6958 12.9727 19.3574 14.4473C19.4591 14.6739 19.5258 14.8222 19.5771 14.9277C19.5881 14.9502 19.598 14.968 19.6055 14.9824C19.6115 14.9828 19.6183 14.9841 19.626 14.9844C19.7053 14.9876 19.8142 14.9883 20 14.9883C22.3472 14.9883 24.25 16.8911 24.25 19.2383L24.2441 19.457C24.1301 21.7023 22.2738 23.4883 20 23.4883H6.9707L6.80371 23.4834L6.79297 23.4824H6.78223C4.60626 23.3722 2.86196 21.6267 2.75488 19.4502L2.75 19.2383C2.75 16.8911 4.65279 14.9883 7 14.9883C7.18579 14.9883 7.2947 14.9876 7.37402 14.9844C7.38127 14.9841 7.38776 14.9827 7.39355 14.9824C7.40102 14.9679 7.4118 14.9504 7.42285 14.9277C7.47423 14.8222 7.5409 14.6739 7.64258 14.4473C8.30419 12.9727 9.50736 11.7914 11 11.1592V13.4316C10.3359 13.8887 9.80161 14.5216 9.46777 15.2656C9.37161 15.48 9.28917 15.6631 9.2207 15.8037C9.16029 15.9278 9.07155 16.1031 8.94922 16.2529C8.83625 16.3913 8.69228 16.5452 8.49219 16.6748C8.29199 16.8044 8.09247 16.8735 7.91992 16.9199C7.63045 16.9978 7.27948 16.9883 7 16.9883C5.75736 16.9883 4.75 17.9956 4.75 19.2383L4.76074 19.4609C4.86886 20.5588 5.76666 21.4244 6.87793 21.4834L7.0293 21.4883H20L20.2305 21.4766C21.3646 21.3611 22.2498 20.403 22.25 19.2383C22.25 17.9956 21.2426 16.9883 20 16.9883C19.7205 16.9883 19.3696 16.9978 19.0801 16.9199C18.9075 16.8735 18.708 16.8044 18.5078 16.6748C18.3077 16.5452 18.1637 16.3913 18.0508 16.2529C17.9285 16.1031 17.8397 15.9278 17.7793 15.8037C17.7108 15.6631 17.6284 15.48 17.5322 15.2656C17.1984 14.5216 16.6641 13.8887 16 13.4316V11.1592Z"
        fill="white" />
    <path d="M9.16663 8.40365L13.5 4.07031M13.5 4.07031L17.8333 8.40365M13.5 4.07031L13.5 14.9036"
        stroke="white" stroke-linecap="round" stroke-linejoin="round" stroke-width="2" />
</svg>
