<svg fill="none" height="29" viewBox="0 0 27 29" width="27" xmlns="http://www.w3.org/2000/svg">
    <path
        d="M5.94922 20.6479L6.61896 24.6664C6.88502 26.2627 7.01804 27.0609 7.57753 27.5349C8.13703 28.0088 8.9462 28.0088 10.5645 28.0088H16.0556C17.674 28.0088 18.4832 28.0088 19.0426 27.5349C19.6021 27.0609 19.7352 26.2627 20.0012 24.6664L20.671 20.6479"
        stroke="white" stroke-linecap="round" stroke-linejoin="round" stroke-width="2" />
    <path d="M15.5185 3.71803C16.2546 2.24585 17.7268 1.50977 19.1989 1.50977" stroke="white"
        stroke-linecap="round" stroke-width="2" />
    <circle cx="13.3103" cy="5.92628" r="2.94435" stroke="white" stroke-linecap="round"
        stroke-linejoin="round" stroke-width="2" />
    <path
        d="M16.2544 5.46094C18.1751 6.18463 19.7586 7.59428 20.7065 9.39062C23.7403 9.77026 26.0872 12.3585 26.0874 15.4951L26.0796 15.8115C25.9201 18.9574 23.3974 21.4802 20.2515 21.6396L19.9351 21.6475C18.8278 21.6475 17.7887 21.3523 16.8911 20.8398C15.885 21.3182 14.7687 21.6035 13.5903 21.6426L13.3101 21.6475C12.0281 21.6475 10.8132 21.3564 9.72705 20.8398C8.8301 21.3518 7.792 21.6475 6.68506 21.6475C3.39337 21.6473 0.705371 19.0622 0.540527 15.8115L0.532715 15.4951C0.532897 12.3592 2.87888 9.77214 5.91162 9.3916C6.85959 7.59444 8.44412 6.1846 10.3657 5.46094V7.64746C9.08491 8.31779 8.06011 9.41199 7.47803 10.7451C7.32227 11.1015 6.97427 11.3356 6.58545 11.3447C4.33836 11.3975 2.53291 13.2354 2.53271 15.4951L2.53857 15.709C2.65006 17.9028 4.46363 19.6473 6.68506 19.6475C7.58442 19.6475 8.41445 19.3606 9.09521 18.874L9.21924 18.7988C9.51656 18.6456 9.87501 18.6499 10.1714 18.8184C11.0978 19.3452 12.1676 19.6475 13.3101 19.6475L13.7349 19.6338C14.7172 19.5687 15.6371 19.2793 16.4478 18.8184L16.5776 18.7559C16.8894 18.6339 17.2464 18.6757 17.5239 18.874C18.2045 19.3607 19.0351 19.6475 19.9351 19.6475L20.1489 19.6416C22.3427 19.5302 24.0872 17.7166 24.0874 15.4951C24.0872 13.2351 22.2812 11.3971 20.0337 11.3447C19.6449 11.3356 19.2969 11.1015 19.1411 10.7451C18.5591 9.41224 17.5346 8.3187 16.2544 7.64844V5.46094Z"
        fill="white" />
</svg>
