<svg fill="none" height="34" viewBox="0 0 34 34" width="34" xmlns="http://www.w3.org/2000/svg">
    <path
        d="M20.5417 29.75V22.25C20.5417 21.6977 20.094 21.25 19.5417 21.25H14.4583C13.9061 21.25 13.4583 21.6977 13.4583 22.25V29.75"
        stroke="white" stroke-linecap="round" stroke-linejoin="round" stroke-width="2" />
    <path
        d="M7.08334 15.5835V25.7502C7.08334 27.6358 7.08334 28.5786 7.66913 29.1644C8.25492 29.7502 9.19773 29.7502 11.0833 29.7502H22.9167C24.8023 29.7502 25.7451 29.7502 26.3309 29.1644C26.9167 28.5786 26.9167 27.6358 26.9167 25.7502V15.5835"
        stroke="white" stroke-width="2" />
    <path
        d="M6.7046 5.76493C6.88649 5.03737 6.97744 4.67359 7.2487 4.46179C7.51996 4.25 7.89493 4.25 8.64489 4.25H25.3551C26.1051 4.25 26.48 4.25 26.7513 4.46179C27.0226 4.67359 27.1135 5.03737 27.2954 5.76493L29.1583 13.2166C29.4161 14.2477 29.545 14.7633 29.3076 15.1284C29.2762 15.1767 29.2406 15.2223 29.2013 15.2645C28.9047 15.5833 28.3667 15.5833 27.2908 15.5833C25.857 15.5833 25.1401 15.5833 24.6203 15.2145C24.527 15.1483 24.4395 15.0742 24.3589 14.9931C23.9096 14.5409 23.7931 13.8422 23.5602 12.4448C23.4947 12.0517 23.462 11.8552 23.3921 11.8431C23.3808 11.8411 23.3692 11.8411 23.3579 11.8431C23.288 11.8552 23.2553 12.0517 23.1898 12.4448L23.0742 13.1379C22.9522 13.8701 22.8912 14.2362 22.7364 14.5259C22.4965 14.9748 22.0944 15.3154 21.6122 15.4782C21.3009 15.5833 20.9298 15.5833 20.1875 15.5833C19.4452 15.5833 19.0741 15.5833 18.7628 15.4782C18.2806 15.3154 17.8785 14.9748 17.6386 14.5259C17.4838 14.2362 17.4228 13.8701 17.3008 13.1379L17.1852 12.4448C17.1197 12.0517 17.087 11.8552 17.0171 11.8431C17.0058 11.8411 16.9942 11.8411 16.9829 11.8431C16.913 11.8552 16.8803 12.0517 16.8148 12.4448L16.6992 13.1379C16.5772 13.8701 16.5162 14.2362 16.3614 14.5259C16.1215 14.9748 15.7194 15.3154 15.2372 15.4782C14.9259 15.5833 14.5548 15.5833 13.8125 15.5833C13.0702 15.5833 12.6991 15.5833 12.3878 15.4782C11.9056 15.3154 11.5035 14.9748 11.2636 14.5259C11.1088 14.2362 11.0478 13.8701 10.9258 13.1379L10.8102 12.4448C10.7447 12.0517 10.712 11.8552 10.6421 11.8431C10.6308 11.8411 10.6192 11.8411 10.6079 11.8431C10.538 11.8552 10.5053 12.0517 10.4398 12.4448C10.2069 13.8422 10.0904 14.5409 9.6411 14.9931C9.56047 15.0742 9.47302 15.1483 9.37973 15.2145C8.85985 15.5833 8.14297 15.5833 6.70921 15.5833C5.63328 15.5833 5.09531 15.5833 4.79867 15.2645C4.75937 15.2223 4.7238 15.1767 4.69236 15.1284C4.45502 14.7633 4.5839 14.2477 4.84168 13.2166L6.7046 5.76493Z"
        stroke="white" stroke-width="2" />
</svg>
