<svg fill="none" height="31" viewBox="0 0 31 31" width="31" xmlns="http://www.w3.org/2000/svg">
    <path
        d="M4.48012 17.4939C3.95141 16.5435 3.68706 16.0683 3.68706 15.5494C3.68706 15.0306 3.95141 14.5554 4.48012 13.6049L6.43711 10.0869L8.50529 6.63314C9.06404 5.70004 9.34342 5.23349 9.79275 4.97407C10.2421 4.71465 10.7858 4.70598 11.8733 4.68863L15.8984 4.62443L19.9236 4.68863C21.0111 4.70598 21.5548 4.71465 22.0041 4.97407C22.4535 5.23349 22.7328 5.70004 23.2916 6.63314L25.3598 10.0869L27.3168 13.6049C27.8455 14.5554 28.1098 15.0306 28.1098 15.5494C28.1098 16.0683 27.8455 16.5435 27.3168 17.4939L25.3598 21.0119L23.2916 24.4657C22.7328 25.3988 22.4535 25.8654 22.0041 26.1248C21.5548 26.3842 21.0111 26.3929 19.9236 26.4102L15.8984 26.4744L11.8733 26.4102C10.7858 26.3929 10.2421 26.3842 9.79275 26.1248C9.34342 25.8654 9.06404 25.3988 8.50529 24.4657L6.43711 21.0119L4.48012 17.4939Z"
        stroke="#83868F" stroke-width="2" />
    <circle cx="15.8984" cy="15.5494" r="3.75" stroke="#83868F" stroke-width="2" />
</svg>
