<svg fill="none" height="36" viewBox="0 0 36 36" width="36" xmlns="http://www.w3.org/2000/svg">
    <path
        d="M21.652 31.2922V23.5422C21.652 22.99 21.2043 22.5422 20.652 22.5422H15.3604C14.8081 22.5422 14.3604 22.99 14.3604 23.5422V31.2922"
        stroke="white" stroke-linecap="round" stroke-linejoin="round" stroke-width="2" />
    <path
        d="M7.79788 16.7089V27.2922C7.79788 29.1778 7.79788 30.1206 8.38367 30.7064C8.96945 31.2922 9.91226 31.2922 11.7979 31.2922H24.2145C26.1002 31.2922 27.043 31.2922 27.6288 30.7064C28.2145 30.1206 28.2145 29.1778 28.2145 27.2922V16.7089"
        stroke="white" stroke-width="2" />
    <path
        d="M7.41916 6.55717C7.60105 5.82961 7.692 5.46583 7.96326 5.25403C8.23452 5.04224 8.60949 5.04224 9.35945 5.04224H26.653C27.403 5.04224 27.7779 5.04224 28.0492 5.25403C28.3205 5.46583 28.4114 5.82961 28.5933 6.55717L30.5221 14.2726C30.7965 15.3699 30.9336 15.9185 30.6601 16.2959C30.6461 16.3151 30.6315 16.3338 30.6162 16.352C30.3165 16.7089 29.7442 16.7089 28.5997 16.7089C27.0743 16.7089 26.3117 16.7089 25.7724 16.2939C25.7228 16.2557 25.675 16.2153 25.6292 16.1726C25.1312 15.7089 25.0073 14.9653 24.7594 13.4781C24.6896 13.0592 24.6547 12.8498 24.5781 12.8426C24.5719 12.842 24.5656 12.842 24.5594 12.8426C24.4827 12.8498 24.4478 13.0592 24.378 13.4781L24.2591 14.1915C24.1257 14.9922 24.059 15.3925 23.8799 15.7044C23.6473 16.1097 23.2801 16.4208 22.8421 16.5836C22.505 16.7089 22.0991 16.7089 21.2875 16.7089C20.4758 16.7089 20.07 16.7089 19.7329 16.5836C19.2948 16.4208 18.9276 16.1097 18.695 15.7044C18.516 15.3925 18.4493 14.9922 18.3158 14.1915L18.1969 13.4781C18.1271 13.0592 18.0922 12.8498 18.0156 12.8426C18.0094 12.842 18.0031 12.842 17.9969 12.8426C17.9202 12.8498 17.8853 13.0592 17.8155 13.4781L17.6966 14.1915C17.5632 14.9922 17.4965 15.3925 17.3174 15.7044C17.0848 16.1097 16.7176 16.4208 16.2796 16.5836C15.9425 16.7089 15.5366 16.7089 14.725 16.7089C13.9133 16.7089 13.5075 16.7089 13.1704 16.5836C12.7323 16.4208 12.3651 16.1097 12.1325 15.7044C11.9535 15.3925 11.8868 14.9922 11.7533 14.1915L11.6344 13.4781C11.5646 13.0592 11.5297 12.8498 11.4531 12.8426C11.4469 12.842 11.4406 12.842 11.4344 12.8426C11.3577 12.8498 11.3228 13.0592 11.253 13.4781C11.0052 14.9653 10.8812 15.7089 10.3832 16.1726C10.3374 16.2153 10.2896 16.2557 10.2401 16.2939C9.70078 16.7089 8.93811 16.7089 7.41276 16.7089C6.26821 16.7089 5.69594 16.7089 5.39621 16.352C5.38094 16.3338 5.36632 16.3151 5.35238 16.2959C5.07882 15.9185 5.21598 15.3699 5.49031 14.2726L7.41916 6.55717Z"
        stroke="white" stroke-width="2" />
</svg>
