<svg fill="none" height="25" viewBox="0 0 25 25" width="25" xmlns="http://www.w3.org/2000/svg">
    <path
        d="M2.922 12.968L2.14113 12.3433L1.64137 12.968L2.14113 13.5927L2.922 12.968ZM11.922 13.968C12.4743 13.968 12.922 13.5203 12.922 12.968C12.922 12.4157 12.4743 11.968 11.922 11.968V12.968V13.968ZM6.922 7.96802L6.14113 7.34332L2.14113 12.3433L2.922 12.968L3.70287 13.5927L7.70287 8.59271L6.922 7.96802ZM2.922 12.968L2.14113 13.5927L6.14113 18.5927L6.922 17.968L7.70287 17.3433L3.70287 12.3433L2.922 12.968ZM2.922 12.968V13.968H11.922V12.968V11.968H2.922V12.968Z"
        fill="#FD0909" />
    <path
        d="M10.922 9.09995V8.35652C10.922 6.73818 10.922 5.92901 11.396 5.36952C11.8699 4.81003 12.6681 4.677 14.2644 4.41095L15.9356 4.13242C19.1787 3.5919 20.8002 3.32164 21.8611 4.22034C22.922 5.11904 22.922 6.76295 22.922 10.0508V15.8853C22.922 19.1731 22.922 20.817 21.8611 21.7157C20.8002 22.6144 19.1787 22.3441 15.9356 21.8036L14.2644 21.5251C12.6681 21.259 11.8699 21.126 11.396 20.5665C10.922 20.007 10.922 19.1979 10.922 17.5795V17.034"
        stroke="#FD0909" stroke-width="2" />
</svg>
