<svg fill="none" height="25" viewBox="0 0 25 25" width="25" xmlns="http://www.w3.org/2000/svg">
    <circle cx="12.922" cy="8.53638" r="4" stroke="white" stroke-linecap="round" stroke-width="2" />
    <path
        d="M12.9219 15.5364C13.3682 15.5364 13.8128 15.5629 14.252 15.6135C13.2334 15.8461 12.4135 16.5956 12.082 17.5725C10.7871 17.6858 9.56529 18.059 8.55078 18.6428C7.31871 19.3519 6.49703 20.3085 6.13574 21.3196C5.94995 21.8395 5.3784 22.1106 4.8584 21.925C4.3384 21.7392 4.06717 21.1668 4.25293 20.6467C4.80328 19.1065 5.99084 17.8083 7.55273 16.9094C9.11539 16.0101 11.0024 15.5364 12.9219 15.5364Z"
        fill="white" />
    <path d="M18.922 14.5364L18.922 22.5364" stroke="white" stroke-linecap="round"
        stroke-width="2.5" />
    <path d="M22.922 18.5364L14.922 18.5364" stroke="white" stroke-linecap="round"
        stroke-width="2.5" />
</svg>
