<svg fill="none" height="31" viewBox="0 0 31 31" width="31" xmlns="http://www.w3.org/2000/svg">
    <path
        d="M18.7107 5.70142H13.0857C9.10822 5.70142 7.11948 5.70142 5.88384 6.95667C4.64819 8.21193 4.64819 10.2322 4.64819 14.2728V17.13C4.64819 21.1706 4.64819 23.1909 5.88384 24.4462C7.11948 25.7014 9.10822 25.7014 13.0857 25.7014H18.7107C22.6882 25.7014 24.6769 25.7014 25.9126 24.4462C27.1482 23.1909 27.1482 21.1706 27.1482 17.13V14.2728C27.1482 10.2322 27.1482 8.21193 25.9126 6.95667C24.6769 5.70142 22.6882 5.70142 18.7107 5.70142Z"
        stroke="#83868F" stroke-width="2" />
    <path d="M9.64819 10.7014H13.3982" stroke="#83868F" stroke-linecap="round" stroke-width="2" />
    <path
        d="M19.6482 18.7014V17.7014C19.6482 16.7586 19.6482 16.2872 19.9411 15.9943C20.234 15.7014 20.7054 15.7014 21.6482 15.7014H25.1482C26.091 15.7014 26.5624 15.7014 26.8553 15.9943C27.1482 16.2872 27.1482 16.7586 27.1482 17.7014V18.7014C27.1482 19.6442 27.1482 20.1156 26.8553 20.4085C26.5624 20.7014 26.091 20.7014 25.1482 20.7014H21.6482C20.7054 20.7014 20.234 20.7014 19.9411 20.4085C19.6482 20.1156 19.6482 19.6442 19.6482 18.7014Z"
        stroke="#83868F" stroke-width="2" />
</svg>
